<svg xmlns="http://www.w3.org/2000/svg" version="1.1" xmlns:xlink="http://www.w3.org/1999/xlink" xmlns:svgjs="http://svgjs.dev/svgjs" width="100%" height="100%" viewBox="0 0 1000 600"><rect width="1000" height="600" x="0" y="0" fill="#000000"/><g><circle r="166.66666666666666" cx="297.4640452067057" cy="319.68625681490016" fill="#01405d" transform="matrix(0.9556766829432943,0,0,0.9556766829432946,0,-5.516715401570735)"/><path d="M254.84092258764952 393.3572060701882L235.70842674270625 393.3572060701882L235.70842674270625 261.62425406510215L188.97444658510648 261.62425406510215L188.97444658510648 244.68627712967577L301.35854172600114 244.68627712967577L301.35854172600114 261.62425406510215L254.84092258764952 261.62425406510215L254.84092258764952 393.3572060701882ZM336.069030956811 393.3572060701882L318.0492489251439 393.3572060701882L318.0492489251439 288.76210762222684L335.4199478990665 288.76210762222684L335.4199478990665 307.8946034671701Q339.4071723966395 297.88017914768443 347.3198039577146 292.6566059686935Q355.2015268017543 287.43303278970257 365.21595112123987 287.43303278970257L365.21595112123987 287.43303278970257Q368.33773154182035 287.43303278970257 370.9031550557627 287.7730286770925Q373.46857856970496 288.08211584744697 375.01401442147744 288.76210762222684L375.01401442147744 288.76210762222684L375.01401442147744 305.66917584061775Q372.13950373718063 305.02009278287335 369.23408433584837 304.6800968954834Q366.3286649345161 304.3401010080935 363.4541542502193 304.3401010080935L363.4541542502193 304.3401010080935Q351.6470243426776 304.3401010080935 343.85802764974426 314.4781601957209Q336.069030956811 324.5853106663129 336.069030956811 342.85236243426357L336.069030956811 342.85236243426357L336.069030956811 393.3572060701882ZM394.6101410219525 394.6862809027125L394.6101410219525 394.6862809027125Q389.47929399406786 394.6862809027125 386.3575135734874 391.5645004821321Q383.2666418699424 388.4736287785872 383.2666418699424 384.0227735254824L383.2666418699424 384.0227735254824Q383.2666418699424 379.32464853609406 386.3575135734874 376.2337768325491Q389.47929399406786 373.1119964119688 394.6101410219525 373.1119964119688L394.6101410219525 373.1119964119688Q399.7100793328016 373.1119964119688 402.83185975338205 376.2337768325491Q405.95364017396247 379.32464853609406 405.95364017396247 384.0227735254824L405.95364017396247 384.0227735254824Q405.95364017396247 388.4736287785872 402.83185975338205 391.5645004821321Q399.7100793328016 394.6862809027125 394.6101410219525 394.6862809027125Z " fill="#ff5733" transform="matrix(0.9556766829432943,0,0,0.9556766829432946,0,-5.516715401570735)"/><path d="M597.9146756052929 392.4740699700892L547.4640403042624 392.4740699700892L547.4640403042624 244.68627715769153L597.9146756052929 244.68627715769153Q635.5222137346848 244.68627715769153 655.2170110720542 263.2749704324318Q674.9118084094237 281.863663707172 674.9118084094237 318.5801735638904L674.9118084094237 318.5801735638904Q674.9118084094237 355.2966834206087 655.2170110720542 373.885376695349Q635.5222137346848 392.4740699700892 597.9146756052929 392.4740699700892L597.9146756052929 392.4740699700892ZM566.5136102717647 261.06276230717344L566.5136102717647 376.0975848206074L596.3784199627524 376.0975848206074Q627.5644095063249 376.0975848206074 641.482885627742 361.84113245783135Q655.4320868620099 347.5539549822046 655.4320868620099 318.5801735638904L655.4320868620099 318.5801735638904Q655.4320868620099 289.60639214557625 641.482885627742 275.3499397828003Q627.5644095063249 261.06276230717344 596.3784199627524 261.06276230717344L596.3784199627524 261.06276230717344L566.5136102717647 261.06276230717344ZM752.3390927934656 394.6862780953476L752.3390927934656 394.6862780953476Q736.8536359166574 394.6862780953476 724.4406903249298 388.26472950952825Q712.0584698460533 381.8431809237089 704.991693890367 369.79893668619127Q697.8941928218298 357.7546924486736 697.8941928218298 340.4871790265182L697.8941928218298 340.4871790265182Q697.8941928218298 323.8956180870806 704.7766181004113 311.72847339815974Q711.6283182661421 299.56132870923886 723.3345862623007 292.92470433346375Q735.0715793713102 286.28807995768875 749.4509321854895 286.28807995768875L749.4509321854895 286.28807995768875Q764.7213132723423 286.28807995768875 775.7823538986339 292.248751850746Q786.8433945249257 298.24014885665395 792.8040664179829 308.2872607588689Q798.7954634238909 318.36509777393474 798.7954634238909 331.2081949455735L798.7954634238909 331.2081949455735Q798.7954634238909 334.7415829234167 797.7815346998142 339.0430987225301Q796.7983310885882 343.37533963449437 795.2313503331969 346.017699339664L795.2313503331969 346.017699339664L716.2678103066144 346.017699339664Q717.3739143692435 356.64858838604437 722.1363068611191 364.0533405830897Q726.8986993529948 371.45809278013496 735.0715793713102 375.2065565479338Q743.2444593896258 378.9857454285835 753.8753484360061 378.9857454285835L753.8753484360061 378.9857454285835Q764.2604365795801 378.9857454285835 772.1260654693875 375.7596085792484Q779.991694359195 372.5641968427641 787.273546104837 366.603524949707L787.273546104837 366.603524949707L794.3710471733742 380.09184949121266Q785.9523662522522 387.3737012368548 775.3214772058718 391.0299896661012Q764.7213132723423 394.6862780953476 752.3390927934656 394.6862780953476ZM716.2678103066144 330.96239404276696L716.2678103066144 330.96239404276696L780.2067701491507 330.96239404276696Q780.4218459391063 330.5322424628556 780.4218459391063 330.10209088294425Q780.4218459391063 329.64121419018215 780.4218459391063 328.7501859175086L780.4218459391063 328.7501859175086Q780.4218459391063 320.7923816891488 777.1035337512188 314.70880934468835Q773.7852215633313 308.6252370002278 767.025696736153 305.3069248123403Q760.2968970218255 301.9886126244528 750.1268846682074 301.9886126244528L750.1268846682074 301.9886126244528Q742.1383553269966 301.9886126244528 735.0715793713102 305.4298252637436Q728.0048034156239 308.8403127901835 723.119510472345 315.2618613760029Q718.2649426419171 321.68340996182224 716.2678103066144 330.96239404276696ZM873.119511410001 392.4740699700892L853.6397898625873 392.4740699700892L811.1776839027675 288.5002880829471L830.4116045473747 288.5002880829471L863.3796506362942 373.67030090539333L896.3476967252136 288.5002880829471L915.581617369821 288.5002880829471L873.119511410001 392.4740699700892Z " fill="#ff5733" transform="matrix(0.9556766829432943,0,0,0.9556766829432946,0,-5.516715401570735)"/></g></svg>